<svg xmlns="http://www.w3.org/2000/svg" viewBox="0 0 64 64" role="img" aria-label="Lotus emblem">
  <defs>
    <linearGradient id="g" x1="0" y1="0" x2="0" y2="1">
      <stop offset="0" stop-color="#E08A1E" />
      <stop offset="1" stop-color="#7B1E22" />
    </linearGradient>
  </defs>
  <rect width="64" height="64" rx="14" fill="#FBF7EE" />
  <g fill="none" stroke="url(#g)" stroke-width="2.4" stroke-linecap="round" stroke-linejoin="round">
    <path d="M32 50c-9 0-16-5-16-12 6-1 12 2 16 8 4-6 10-9 16-8 0 7-7 12-16 12Z" fill="#C9A227" fill-opacity="0.18" />
    <path d="M32 50c-2-7-2-15 0-22 2 7 2 15 0 22Z" fill="#C9A227" fill-opacity="0.25" />
    <path d="M32 50c-5-6-8-12-8-19 5 3 8 9 8 15" />
    <path d="M32 50c5-6 8-12 8-19-5 3-8 9-8 15" />
    <circle cx="32" cy="16" r="3.2" fill="#7B1E22" stroke="none" />
  </g>
</svg>
